<svg xmlns="http://www.w3.org/2000/svg" xml:space="preserve" width="549.97754" height="500" viewBox="0 0 549.97753 500.00001"><g style="fill:#fff"><g style="fill:#fff"><path d="M0 0a7.044 7.044 0 0 1-.509 1.731c-.764 1.655-1.835 3.048-3.434 3.978-2.489 1.451-5.496 1.443-7.957-.053a6.937 6.937 0 0 1-2.621-2.803 7.985 7.985 0 0 1-.498-1.231c-.648-2.059-.623-4.833.546-6.714.378-.616.931-1.141 1.608-1.401.672-.261 1.475-.232 2.08.158.784.511.922 1.47.777 2.331-.183 1.099-.326 2.174.081 3.247.126.342.31.675.574.923.16.156.35.28.55.381.424.206.908.301 1.373.221.815-.13 1.483-.761 1.845-1.505.359-.74.46-1.579.499-2.406.172-3.595-.685-7.315-1.603-10.767a30.018 30.018 0 0 0-.293-1.06c-.078-.273-.215-.622-.043-.886a.714.714 0 0 1 .32-.246c.532-.214.971.113 1.321.469 2.111 2.125 3.463 4.853 4.383 7.67.345 1.046.644 2.113.839 3.2C.111-3.273.269-1.571 0 0" style="fill:#fff;fill-opacity:1;fill-rule:nonzero;stroke:none" transform="matrix(12.5992 0 0 -12.5992 359.942 296.269)"/></g><g style="fill:#fff"><path d="M0 0c0 .544-.478.9-.99.881-.521-.022-1.005-.288-1.484-.47-9.262-3.523-19.716-4.193-29.481-2.784-1.67.24-3.361.58-5.04.84-1.051.166-2.09.403-3.151.485-.901.064-2.029.097-2.759-.532-.966-.829-.896-2.407-.349-3.452.656-1.245 1.805-2.187 3.001-2.895 1.16-.695 2.547-1.432 3.93-1.344 3.733.238 7.452.595 11.164 1.084 6.326.817 12.957 1.59 18.897 4.049 1.943.8 3.859 1.8 5.525 3.096C-.437-.814 0-.437 0 0" style="fill:#fff;fill-opacity:1;fill-rule:nonzero;stroke:none" transform="matrix(12.5992 0 0 -12.5992 549.978 87.108)"/></g><g style="fill:#fff"><path d="M0 0a3.644 3.644 0 1 1 7.288 0c0 .3-.073.602-.197.874-.309.661-.664.984-.629 1.778.046 1.068-1.326 1.084-2.066 1.084-.805 0-1.655-.112-2.386-.476A3.713 3.713 0 0 1 .577 1.972 3.629 3.629 0 0 1 0 .082V0" style="fill:#fff;fill-opacity:1;fill-rule:nonzero;stroke:none" transform="matrix(12.5992 0 0 -12.5992 215.162 47.07)"/></g></g></svg>